<?xml version="1.0" encoding="utf-8"?>
<!-- Generator: Adobe Illustrator 19.2.0, SVG Export Plug-In . SVG Version: 6.00 Build 0)  -->
<svg version="1.1" xmlns="http://www.w3.org/2000/svg" xmlns:xlink="http://www.w3.org/1999/xlink" x="0px" y="0px"
	 viewBox="0 0 500 500" style="enable-background:new 0 0 500 500;" xml:space="preserve">
<style type="text/css">
	.st0{display:none;}
	.st1{display:inline;}
	.st2{fill:#FFFFFF;}
	.st3{fill:#010101;}
	.st4{fill:#131313;}
</style>
<g id="Layer_1">
	<g id="Layer_1_1_" class="st0">
		<g class="st1">
			<path id="Shape" d="M105.1,459.8L72.9,98.3h354.2l-32.3,361.5l-145,40.2L105.1,459.8z"/>
			<path id="Shape_1_" d="M250,469.3l117.2-32.5l27.6-308.9H250V469.3z"/>
			<path id="Shape_2_" class="st2" d="M250,261.9h-58.7l-4.1-45.4H250v-44.3h-0.2h-111l1.1,11.9l10.9,122.2H250V261.9z"/>
			<path id="Shape_3_" class="st2" d="M250,377.1l-0.2,0.1l-49.4-13.3l-3.2-35.4h-24h-20.5l6.2,69.6l90.8,25.2l0.2-0.1v-46.1H250z"
				/>
			<path id="Shape_4_" class="st3" d="M105.8,0h22.5v22.3H149V0h22.5v67.4H149V44.8h-20.6v22.6h-22.5L105.8,0L105.8,0z"/>
			<path id="Shape_5_" class="st3" d="M201.2,22.4h-19.8V0h62.2v22.4h-19.8v45.1h-22.5L201.2,22.4L201.2,22.4L201.2,22.4z"/>
			<path id="Shape_6_" class="st3" d="M253.4,0h23.5l14.5,23.7L305.8,0h23.5v67.4h-22.4V34l-15.5,24H291l-15.5-24v33.4h-22.1V0
				L253.4,0z"/>
			<path id="Shape_7_" class="st3" d="M340.5,0H363v45.1h31.7v22.3h-54.2V0L340.5,0z"/>
			<path id="Shape_8_" class="st2" d="M249.8,261.9v44.3h54.6l-5.1,57.5l-49.5,13.4v46.1l90.9-25.2l0.7-7.5l10.4-116.7l1.1-11.9H341
				H249.8z"/>
			<path id="Shape_9_" class="st2" d="M249.8,172.2v27.5v16.7v0.1h107h0.1l0.9-10l2-22.5l1.1-11.9L249.8,172.2L249.8,172.2z"/>
		</g>
	</g>
	<g id="Layer_2">
		<g>
			<path id="Shape_17_" class="st4" d="M350.8,18.5h-29.4L352,51.7v15.8h-63V49h30.6L289,15.8V0h61.8V18.5L350.8,18.5z M276.5,18.5
				h-29.4l30.6,33.2v15.8h-63V49h30.6l-30.6-33.2V0h61.8V18.5L276.5,18.5z M202.9,19.3h-31.7v29h31.7v19.3h-54.3V0h54.3V19.3
				L202.9,19.3z"/>
			<path id="Shape_16_" d="M105.4,459.8L73.2,98.3h354.2l-32.3,361.5l-145,40.2L105.4,459.8z"/>
			<path id="Shape_15_" d="M250.3,469.3l117.2-32.5l27.6-308.9H250.3V469.3z"/>
			<g id="Group" transform="translate(55.000000, 142.000000)">
				<path id="Shape_14_" class="st2" d="M195.3,116.8H254l4.1-45.4h-62.7V27.1h0.2h111L305.4,39l-10.9,122.2h-99.2V116.8z"/>
				<path id="Shape_13_" class="st2" d="M195.5,232l-0.2,0.1L146,218.7l-3.2-35.4h-24H98.3l6.2,69.6l90.8,25.2l0.2-0.1V232z"/>
				<path id="Shape_12_" class="st2" d="M250.2,159.3l-5.3,59.4L195.4,232v46.1l90.9-25.2l0.7-7.5l7.7-86.2L250.2,159.3L250.2,159.3
					z"/>
				<path id="Shape_11_" class="st2" d="M195.4,27.1v27.5v16.7v0.1h-107h-0.1l-0.9-10l-2-22.5L84.3,27L195.4,27.1L195.4,27.1z"/>
				<path id="Shape_10_" class="st2" d="M195.3,116.8v27.5V161v0.1h-48.6h-0.1l-0.9-10l-2-22.5l-1.1-11.9L195.3,116.8L195.3,116.8z"
					/>
			</g>
		</g>
	</g>
	<rect x="231.3" y="169" class="st2" width="42.5" height="44.3"/>
	<rect x="231.3" y="258.8" class="st2" width="42.5" height="44.3"/>
	<polygon class="st2" points="250.5,420 250.5,420 229.3,374.5 271.8,374.5 	"/>
</g>
<g id="Layer_2_1_">
	<rect x="117" y="142" width="257" height="291"/>
	<polygon class="st2" points="139.3,169 361.6,169 341.3,394.9 250.5,420 159.5,394.9 153.3,325.3 197.8,325.3 201,360.7 
		250.3,374.1 299.9,360.7 305,303.2 201.6,303.2 197.6,258.7 309,258.8 313.1,213.4 143.3,213.4 	"/>
</g>
<g id="Layer_3">
</g>
</svg>
