<?xml version="1.0" encoding="utf-8"?>
<!-- Generator: Adobe Illustrator 19.1.1, SVG Export Plug-In . SVG Version: 6.00 Build 0)  -->
<svg version="1.1" id="Layer_1" xmlns="http://www.w3.org/2000/svg" xmlns:xlink="http://www.w3.org/1999/xlink" x="0px" y="0px"
	 viewBox="0 0 500 500" style="enable-background:new 0 0 500 500;" xml:space="preserve">
<style type="text/css">
	.st0{fill:#FFFFFF;}
	.st1{fill:#010101;}
</style>
<g>
	<path id="Shape" d="M105.1,459.8L72.9,98.3h354.2l-32.3,361.5L249.8,500L105.1,459.8z"/>
	<path id="Shape_1_" d="M250,469.3l117.2-32.5l27.6-308.9H250V469.3z"/>
	<path id="Shape_2_" class="st0" d="M250,261.9h-58.7l-4.1-45.4H250v-44.3h-0.2h-111l1.1,11.9l10.9,122.2H250V261.9z"/>
	<path id="Shape_3_" class="st0" d="M250,377.1l-0.2,0.1l-49.4-13.3l-3.2-35.4h-24h-20.5l6.2,69.6l90.8,25.2l0.2-0.1V377.1z"/>
	<path id="Shape_4_" class="st1" d="M105.8,0h22.5v22.3H149V0h22.5v67.4H149V44.8h-20.6v22.6h-22.5V0L105.8,0z"/>
	<path id="Shape_5_" class="st1" d="M201.2,22.4h-19.8V0h62.2v22.4h-19.8v45.1h-22.5L201.2,22.4L201.2,22.4L201.2,22.4z"/>
	<path id="Shape_6_" class="st1" d="M253.4,0h23.5l14.5,23.7L305.8,0h23.5v67.4h-22.4V34l-15.5,24H291l-15.5-24v33.4h-22.1L253.4,0
		L253.4,0z"/>
	<path id="Shape_7_" class="st1" d="M340.5,0h22.5v45.1h31.7v22.3h-54.2L340.5,0L340.5,0z"/>
	<path id="Shape_8_" class="st0" d="M249.8,261.9v44.3h54.6l-5.1,57.5l-49.5,13.4v46.1l90.9-25.2l0.7-7.5l10.4-116.7l1.1-11.9H341
		H249.8z"/>
	<path id="Shape_9_" class="st0" d="M249.8,172.2v27.5v16.7v0.1h107h0.1l0.9-10l2-22.5l1.1-11.9H249.8z"/>
</g>
</svg>
