<?xml version="1.0" encoding="utf-8"?>
<!-- Generator: Adobe Illustrator 19.1.1, SVG Export Plug-In . SVG Version: 6.00 Build 0)  -->
<svg version="1.1" id="Layer_1" xmlns="http://www.w3.org/2000/svg" xmlns:xlink="http://www.w3.org/1999/xlink" x="0px" y="0px"
	 viewBox="0 0 72 72" style="enable-background:new 0 0 72 72;" xml:space="preserve">
<style type="text/css">
	.st0{fill:#FFFFFF;}
</style>
<path id="Instagram_3_" class="st0" d="M63,1.2H9c-4.7,0-8.4,3.7-8.4,8.4v54C0.6,68.2,4.4,72,9,72h54c4.7,0,8.4-3.8,8.4-8.4v-54
	C71.4,4.9,67.7,1.2,63,1.2z M51.5,12.2c0-1.2,1-2.2,2.2-2.2h6.6c1.2,0,2.2,1,2.2,2.2v6.6c0,1.2-1,2.2-2.2,2.2h-6.6
	c-1.2,0-2.2-1-2.2-2.2V12.2z M36.1,23.1c7.5,0,13.6,6.1,13.6,13.6s-6.1,13.6-13.6,13.6s-13.6-6.1-13.6-13.6
	C22.4,29.2,28.6,23.1,36.1,23.1z M64.8,63.2c0,1.2-1,2.2-2.2,2.2H9.4c-1.2,0-2.2-1-2.2-2.2V30h8.9c-1.2,1.7-1.5,4.8-1.5,6.7
	c0,11.9,9.7,21.5,21.6,21.5s21.6-9.7,21.6-21.5c0-2-0.3-5-1.7-6.7H65v33.2H64.8z"/>
</svg>
