<?xml version="1.0" encoding="utf-8"?>
<!-- Generator: Adobe Illustrator 19.1.1, SVG Export Plug-In . SVG Version: 6.00 Build 0)  -->
<svg version="1.1" id="Layer_1" xmlns="http://www.w3.org/2000/svg" xmlns:xlink="http://www.w3.org/1999/xlink" x="0px" y="0px"
	 viewBox="0 0 72 72" style="enable-background:new 0 0 72 72;" xml:space="preserve">
<style type="text/css">
	.st0{fill:#FFFFFF;}
</style>
<g id="LinkedIn_3_">
	<rect x="1.8" y="27.5" class="st0" width="14" height="44.5"/>
	<path class="st0" d="M54.2,27.1c-8,0-13.1,4.4-14,7.4v-7H24.4c0.2,3.7,0,44.5,0,44.5h15.8V47.9c0-1.3-0.1-2.7,0.3-3.6
		c1.1-2.7,3.4-5.4,7.6-5.4c5.5,0,8,4.1,8,10.1v23H72V47.3C72,33.5,64.2,27.1,54.2,27.1z"/>
	<path class="st0" d="M8.6,6.5C3.4,6.5,0,9.9,0,14.3C0,18.6,3.3,22,8.4,22h0.1c5.3,0,8.6-3.4,8.6-7.7C16.9,9.9,13.7,6.5,8.6,6.5z"/>
</g>
</svg>
