<?xml version="1.0" encoding="utf-8"?>
<!-- Generator: Adobe Illustrator 19.2.0, SVG Export Plug-In . SVG Version: 6.00 Build 0)  -->
<svg version="1.1" xmlns="http://www.w3.org/2000/svg" xmlns:xlink="http://www.w3.org/1999/xlink" x="0px" y="0px"
	 viewBox="0 0 937.5 1000" style="enable-background:new 0 0 937.5 1000;" xml:space="preserve">
<style type="text/css">
	.st0{display:none;}
	.st1{display:inline;fill:#FFFFFF;}
	.st2{fill:#FFFFFF;}
	.st3{fill:none;}
</style>
<g id="Layer_1" class="st0">
	<path class="st1" d="M0,500.3C0,586.5,21,664.7,63,735c42,72.5,98.9,129.6,170.8,171.3s150.1,62.5,234.7,62.5
		c84.9,0,163.5-20.8,235.7-62.5c72.2-42,129.1-99,170.6-171s62.2-150.4,62.2-235c0-85.9-20.8-164.5-62.5-235.7
		c-42-72.2-99-129.1-171-170.6s-150.4-62.2-235-62.2c-86.2,0-164.5,21-234.7,63c-72.5,42-129.6,98.9-171.3,170.8S0,415.7,0,500.3
		L0,500.3z M78.1,500.3c0-52.1,10.2-102.3,30.7-150.8s48.5-90.3,83.9-125.4c35.5-35.5,77.3-63.4,125.4-83.7s98.3-30.5,150.3-30.5
		s102.3,10.2,150.8,30.5c48.5,20.3,90.4,48.2,125.9,83.7c35.1,35.1,62.9,76.9,83.2,125.4c20.3,48.5,30.5,98.7,30.5,150.8
		c0,56-11.5,109.3-34.4,160.1c-22.9,50.8-55.1,94.6-96.6,131.5c-41.5,36.9-88.9,63.7-142.3,80.3V734.5c0-34.2-14-60.8-42-80
		c68.6-6.2,118.8-23.6,150.5-52.2c31.7-28.6,47.6-74,47.6-136.2c0-48.1-14.8-88.7-44.4-121.5c5.9-17.6,8.8-34.5,8.8-50.8
		c0-24.1-5.5-46.2-16.6-66.4c-21.8,0-41.3,3.6-58.6,10.7s-38.4,19.5-63.4,37.1c-30.3-6.8-61.5-10.2-93.7-10.2
		c-36.8,0-71.1,3.7-103,11.2c-24.4-17.9-45.5-30.5-63.2-37.8c-17.7-7.3-37.8-11-60.3-11c-10.7,20.5-16.1,42.6-16.1,66.4
		c0,16.9,2.8,34,8.3,51.2c-29.6,31.9-44.4,72.2-44.4,121c0,62.1,15.8,107.4,47.3,135.7c31.6,28.3,82.1,45.7,151.8,52.2
		c-18.5,12.4-31.4,30.4-38.6,54.2c-15.9,5.5-32.5,8.3-49.8,8.3c-13,0-24.2-2.9-33.7-8.8c-2.9-1.6-5.6-3.3-8.1-5.1
		c-2.4-1.8-5-4-7.6-6.6c-2.6-2.6-4.7-4.6-6.3-6.1c-1.6-1.5-3.7-4-6.3-7.6c-2.6-3.6-4.3-5.9-5.1-6.8s-2.8-3.6-5.9-7.8
		s-4.8-6.5-5.1-6.8c-15.3-20.2-33.5-30.3-54.7-30.3c-11.4,0-17.1,2.4-17.1,7.3c0,2,2.8,5.2,8.3,9.8c10.4,9.1,15.9,14,16.6,14.6
		c7.8,6.2,12.2,10.1,13.2,11.7c9.4,11.7,16.6,24.6,21.5,38.6c18.2,40.7,49.5,61,93.7,61c7.2,0,21.1-1.6,42-4.9v103.5
		c-53.4-16.6-100.8-43.4-142.3-80.3c-41.5-36.9-73.7-80.8-96.6-131.5C89.5,609.6,78.1,556.2,78.1,500.3L78.1,500.3z"/>
</g>
<g id="Layer_2">
	<path class="st2" d="M819.7,999.7c-239.5,0-479.1,0-718.6,0c-12-5.2-15.8-14.5-15.8-27.3c0.2-252.8,0.2-505.7,0-758.5
		c0-10.1,3-17.9,9.8-25.4c52.8-58.8,105.3-117.9,158.1-176.7c4-4.5,9.2-7.9,13.9-11.8c184.2,0,368.4,0,552.6,0
		c11.9,5.2,15.8,14.4,15.8,27.3c-0.2,315.1-0.2,630.2,0,945.2C835.5,985.2,831.6,994.5,819.7,999.7z M127.3,957.7
		c222.7,0,444.1,0,666,0c0-305.6,0-610.6,0-916c-166.5,0-332.2,0-499.2,0c0,4.3,0,8.1,0,11.9c0,56.3,0,112.6,0,168.9
		c0,19.8-7.5,27.3-27,27.3c-43,0-85.9,0-128.9,0c-3.5,0-7,0-10.9,0C127.3,486.3,127.3,721.7,127.3,957.7z M251.2,76.3
		C211.3,121,173.1,163.9,133.7,208c40.6,0,78.8,0,117.5,0C251.2,164.7,251.2,121.9,251.2,76.3z"/>
	<path class="st3" d="M127.3,957.7c0-236,0-471.4,0-707.9c4,0,7.4,0,10.9,0c43,0,85.9,0,128.9,0c19.5,0,26.9-7.5,27-27.3
		c0.1-56.3,0-112.6,0-168.9c0-3.8,0-7.6,0-11.9c167,0,332.7,0,499.2,0c0,305.4,0,610.4,0,916C571.5,957.7,350,957.7,127.3,957.7z"/>
	<path class="st3" d="M251.2,76.3c0,45.6,0,88.4,0,131.7c-38.7,0-76.9,0-117.5,0C173.1,163.9,211.3,121,251.2,76.3z"/>
</g>
</svg>
